<?xml version="1.0" standalone="no"?>
<!DOCTYPE svg PUBLIC "-//W3C//DTD SVG 20010904//EN"
 "http://www.w3.org/TR/2001/REC-SVG-20010904/DTD/svg10.dtd">
<svg version="1.0" xmlns="http://www.w3.org/2000/svg"
 width="73.000000pt" height="73.000000pt" viewBox="0 0 73.000000 73.000000"
 preserveAspectRatio="xMidYMid meet">
<metadata>
Created by potrace 1.11, written by Peter Selinger 2001-2013
</metadata>
<g transform="translate(0.000000,73.000000) scale(0.100000,-0.100000)"
fill="#000000" stroke="none">
<path d="M0 365 l0 -365 365 0 365 0 0 365 0 365 -365 0 -365 0 0 -365z m430
260 l0 -35 -70 0 -70 0 0 35 0 35 70 0 70 0 0 -35z m80 -145 l0 -40 -40 0
c-39 0 -40 -1 -40 -35 l0 -35 75 0 75 0 0 -35 c0 -33 2 -35 35 -35 l35 0 0
-75 0 -75 -70 0 -70 0 0 -35 c0 -34 -1 -35 -40 -35 -39 0 -40 1 -40 35 l0 35
-70 0 -70 0 0 -35 c0 -34 -1 -35 -40 -35 -39 0 -40 1 -40 35 l0 35 -70 0 -70
0 0 75 0 75 35 0 c33 0 35 2 35 35 l0 35 75 0 75 0 0 35 c0 34 -1 35 -40 35
l-40 0 0 40 0 40 150 0 150 0 0 -40z"/>
</g>
</svg>
